<?xml version="1.0" encoding="UTF-8" standalone="no"?>
<svg
   viewBox="0 0 675 675"
   width="675"
   height="675"
   shape-rendering="geometricPrecision"
   version="1.1"
   id="svg2"
   sodipodi:docname="datashare-clean.svg"
   inkscape:export-filename="datashare-template-mini.png"
   inkscape:export-xdpi="4.5511112"
   inkscape:export-ydpi="4.5511112"
   inkscape:version="1.4.3 (0d15f75042, 2025-12-25)"
   xmlns:inkscape="http://www.inkscape.org/namespaces/inkscape"
   xmlns:sodipodi="http://sodipodi.sourceforge.net/DTD/sodipodi-0.dtd"
   xmlns="http://www.w3.org/2000/svg"
   xmlns:svg="http://www.w3.org/2000/svg">
  <defs
     id="defs2" />
  <sodipodi:namedview
     id="namedview2"
     pagecolor="#ffffff"
     bordercolor="#000000"
     borderopacity="0.25"
     inkscape:showpageshadow="2"
     inkscape:pageopacity="0.0"
     inkscape:pagecheckerboard="0"
     inkscape:deskcolor="#d1d1d1"
     inkscape:zoom="0.50592593"
     inkscape:cx="49.414348"
     inkscape:cy="346.88873"
     inkscape:window-width="1536"
     inkscape:window-height="891"
     inkscape:window-x="0"
     inkscape:window-y="0"
     inkscape:window-maximized="1"
     inkscape:current-layer="g2" />
  <g
     transform="matrix(0.1,0,0,-0.1,-155.4,687.2)"
     id="g2">
    <g
       id="g3"
       transform="translate(1430.0837,-1.6362888)">
      <path
         d="m 3241.0717,5207.8415 c 0,-1502.9315 0.8992,-1664.1585 13.4873,-1667.8648 14.3863,-4.633 80.9232,-10.1926 231.0809,-19.4585 45.8565,-2.7797 90.8139,-6.4861 99.8053,-8.3393 9.8907,-2.7798 39.5625,-6.4861 66.537,-10.1925 54.8479,-6.4861 91.713,-12.0457 124.9815,-18.5318 32.3693,-6.4862 81.8224,-14.8255 107.8977,-18.5319 12.588,-1.8532 43.159,-8.3393 67.436,-13.8988 25.1761,-5.5596 51.2514,-12.0457 58.4446,-13.8989 236.4758,-55.5955 436.0865,-127.8697 642.8905,-231.6479 287.7272,-145.4749 436.0865,-261.2988 655.4785,-509.6254 40.4616,-45.403 122.2841,-165.8599 122.2841,-179.7588 0,-5.5595 3.5965,-10.1925 7.1931,-10.1925 8.0924,0 6.2941,2511.9898 -1.7983,2853.9021 -8.0923,322.4539 -10.7897,340.9857 -71.0326,472.5617 -140.267,305.7753 -413.6079,559.6614 -797.5438,739.4201 -209.5014,98.2187 -513.4133,198.2906 -692.3436,227.9416 -17.0838,2.7797 -81.8224,13.8988 -143.8636,24.0913 -61.1421,10.1925 -139.3679,21.3116 -174.4346,24.0914 -34.1676,2.7798 -65.6378,6.4862 -69.2344,8.3393 -2.6974,2.7798 -60.2429,6.4862 -126.7798,10.1926 L 3241.0717,6872 Z"
         id="path1"
         style="stroke-width:0.912767" />
      <path
         d="m 1554,2643 c 0,-2002 3,-2509 13,-2513 31,-12 1655,1 1809,15 27,2 96,7 154,10 58,3 119,7 135,9 85,9 172,18 185,21 8,2 38,6 65,9 83,11 130,19 185,31 14,3 36,7 50,10 65,12 94,19 215,51 72,19 139,39 150,43 11,5 54,21 95,36 109,41 320,149 340,175 3,4 12,11 21,16 27,14 131,105 169,147 136,150 227,336 264,540 26,143 31,198 30,362 0,132 -4,176 -23,250 -114,448 -579,854 -1240,1080 -182,62 -456,128 -621,150 -25,4 -56,8 -70,10 -14,2 -54,6 -90,10 -36,3 -76,8 -90,10 -14,2 -77,7 -140,10 -258,14 -267,15 -280,49 -9,25 -12,291 -14,1283 l -1,693 h -655 -655 z"
         id="path2" />
    </g>
  </g>
</svg>
